<svg id="instagram" xmlns="http://www.w3.org/2000/svg" width="33" height="33" viewBox="0 0 33 33">
  <g id="Rectangle_10904" data-name="Rectangle 10904" fill="#69bce2" stroke="#1e1e1e" stroke-width="1.5" opacity="0">
    <rect width="33" height="33" stroke="none"/>
    <rect x="0.75" y="0.75" width="31.5" height="31.5" fill="none"/>
  </g>
  <g id="instagram-2" data-name="instagram" transform="translate(6.184 6.31)">
    <path id="Path_27" data-name="Path 27" d="M14.3,0H6.066A6.073,6.073,0,0,0,0,6.066V14.3a6.073,6.073,0,0,0,6.066,6.066H14.3A6.073,6.073,0,0,0,20.363,14.3V6.066A6.073,6.073,0,0,0,14.3,0Zm4.018,14.3A4.018,4.018,0,0,1,14.3,18.315H6.066A4.018,4.018,0,0,1,2.049,14.3V6.066A4.018,4.018,0,0,1,6.066,2.049H14.3a4.018,4.018,0,0,1,4.018,4.018V14.3Z" fill="#fff"/>
    <path id="Path_28" data-name="Path 28" d="M138.267,133a5.267,5.267,0,1,0,5.267,5.267A5.273,5.273,0,0,0,138.267,133Zm0,8.485a3.218,3.218,0,1,1,3.218-3.218A3.218,3.218,0,0,1,138.267,141.485Z" transform="translate(-128.085 -128.085)" fill="#fff"/>
    <circle id="Ellipse_1" data-name="Ellipse 1" cx="1.262" cy="1.262" r="1.262" transform="translate(14.196 3.692)" fill="#fff"/>
  </g>
</svg>
