<svg id="twitter" xmlns="http://www.w3.org/2000/svg" width="33" height="33" viewBox="0 0 33 33">
  <g id="Rectangle_10902" data-name="Rectangle 10902" fill="#69bce2" stroke="#1e1e1e" stroke-width="1.5" opacity="0">
    <rect width="33" height="33" stroke="none"/>
    <rect x="0.75" y="0.75" width="31.5" height="31.5" fill="none"/>
  </g>
  <path id="Path_17172" data-name="Path 17172" d="M20.363,49.959a8.7,8.7,0,0,1-2.405.659,4.151,4.151,0,0,0,1.837-2.307,8.343,8.343,0,0,1-2.647,1.011,4.174,4.174,0,0,0-7.221,2.855,4.3,4.3,0,0,0,.1.952,11.816,11.816,0,0,1-8.6-4.367A4.176,4.176,0,0,0,2.7,54.341a4.123,4.123,0,0,1-1.886-.514v.046a4.194,4.194,0,0,0,3.345,4.1,4.167,4.167,0,0,1-1.095.137,3.691,3.691,0,0,1-.79-.071,4.214,4.214,0,0,0,3.9,2.908A8.388,8.388,0,0,1,1,62.729a7.82,7.82,0,0,1-1-.057,11.753,11.753,0,0,0,6.4,1.873A11.8,11.8,0,0,0,18.286,52.666c0-.185-.006-.363-.015-.54A8.328,8.328,0,0,0,20.363,49.959Z" transform="translate(6.739 -39.607)" fill="#fff"/>
</svg>
